<?xml version="1.0" encoding="UTF-8" standalone="no"?>
<!DOCTYPE svg PUBLIC "-//W3C//DTD SVG 1.1//EN" "http://www.w3.org/Graphics/SVG/1.1/DTD/svg11.dtd">
<svg xmlns="http://www.w3.org/2000/svg" version="1.1" viewBox="0.00 0.00 500.00 500.00">
<path fill="#ffffff" d="
  M 77.01 280.61
  Q 76.86 279.11 74.79 270.99
  Q 73.96 267.71 72.75 261.15
  Q 68.36 237.46 66.15 224.07
  C 65.82 222.05 65.86 219.49 65.45 217.38
  Q 62.69 203.15 64.64 185.39
  C 65.10 181.27 64.00 177.61 61.06 173.55
  Q 58.22 169.64 57.03 165.77
  Q 53.51 154.34 52.99 143.48
  Q 52.89 141.37 51.61 139.53
  C 45.25 130.38 54.34 124.48 55.39 115.67
  A 2.62 2.56 -54.8 0 0 55.17 114.30
  Q 51.92 107.31 53.48 98.33
  Q 53.95 95.65 55.36 93.57
  C 57.72 90.10 59.62 86.76 60.11 82.08
  Q 61.11 72.62 62.41 63.23
  C 63.59 54.78 68.56 53.17 74.72 49.22
  C 79.99 45.84 78.73 38.45 84.89 35.90
  C 86.75 35.13 90.62 34.33 93.20 32.31
  C 95.58 30.45 97.62 27.43 101.26 23.04
  C 103.92 19.82 107.75 19.04 112.23 19.86
  Q 114.77 20.32 122.75 21.38
  Q 125.70 21.76 129.54 19.28
  C 133.38 16.79 137.52 10.85 144.25 10.84
  C 147.95 10.84 152.05 11.43 156.31 12.75
  Q 161.97 14.51 163.22 14.61
  Q 166.04 14.85 171.99 13.76
  A 6.42 6.27 24.5 0 0 173.91 13.07
  C 178.26 10.64 184.11 8.72 188.77 7.83
  C 195.10 6.61 200.59 9.27 207.96 11.88
  Q 212.39 13.45 216.77 13.97
  Q 226.11 15.08 231.48 15.11
  C 238.63 15.14 242.23 15.58 248.56 15.72
  C 256.42 15.90 263.45 17.62 271.78 19.52
  A 14.30 14.08 -21.9 0 1 276.28 21.40
  C 281.69 24.86 286.99 28.51 294.10 29.07
  C 300.77 29.59 309.31 30.11 317.25 32.30
  Q 327.52 35.13 336.53 38.82
  Q 343.90 41.84 348.56 45.46
  C 354.76 50.27 362.31 57.59 363.51 65.25
  C 364.12 69.15 364.45 74.32 363.46 78.49
  A 1.33 1.31 25.5 0 0 363.94 79.83
  Q 368.91 83.64 377.30 90.90
  Q 385.19 97.74 389.11 103.40
  Q 397.29 115.23 400.83 129.17
  Q 406.55 151.71 411.07 175.71
  Q 415.38 198.58 415.40 221.98
  A 0.56 0.55 74.5 0 0 416.24 222.46
  C 419.52 220.45 424.46 216.93 428.93 218.55
  C 438.77 222.11 443.17 230.79 445.67 240.32
  Q 448.81 252.30 449.77 267.13
  C 450.64 280.56 448.22 294.40 443.94 306.92
  Q 442.49 311.16 437.92 317.93
  A 2.88 2.78 -0.7 0 1 437.11 318.73
  C 432.55 321.74 426.70 324.19 420.94 324.20
  Q 419.02 324.20 415.75 324.33
  C 409.09 324.61 405.40 332.56 404.17 338.45
  Q 402.26 347.59 401.09 355.08
  Q 400.65 357.88 398.14 360.73
  A 7.25 7.22 76.5 0 0 396.81 362.91
  C 390.54 379.05 383.93 394.79 374.22 408.24
  Q 356.80 432.36 337.81 451.57
  Q 328.99 460.49 316.90 469.42
  C 300.63 481.44 288.29 489.56 270.34 493.83
  Q 266.39 494.77 262.70 495.15
  A 9.16 8.97 45.6 0 1 260.34 495.10
  Q 246.46 493.06 235.90 489.31
  C 222.23 484.47 207.70 477.43 194.94 468.41
  Q 191.38 465.89 185.88 463.36
  Q 182.92 462.00 170.70 453.63
  Q 165.12 449.82 155.55 442.81
  Q 146.33 436.06 141.33 430.77
  Q 134.99 424.07 129.57 415.42
  Q 125.59 409.06 118.43 397.78
  A 0.94 0.94 0.0 0 0 116.93 397.67
  Q 111.99 403.39 104.49 405.01
  Q 101.04 405.75 99.27 405.42
  C 92.95 404.21 88.19 402.23 84.69 396.47
  Q 80.85 390.15 79.49 381.74
  C 78.72 376.96 79.47 370.72 77.71 365.30
  Q 76.82 362.59 73.23 354.78
  Q 69.74 347.18 67.35 336.95
  Q 63.52 320.51 61.04 304.05
  Q 60.69 301.72 60.79 294.79
  Q 60.96 282.79 72.55 281.72
  Q 73.33 281.65 76.48 281.28
  A 0.61 0.61 0.0 0 0 77.01 280.61
  Z"
/>
</svg>
