<svg xmlns="http://www.w3.org/2000/svg" xmlns:xlink="http://www.w3.org/1999/xlink" width="3000" zoomAndPan="magnify" viewBox="0 0 2250 2250.000011" height="3000" preserveAspectRatio="xMidYMid meet" version="1.0"><defs><g/><clipPath id="3c776376e7"><rect x="0" width="2218" y="0" height="2239"/></clipPath></defs><g transform="matrix(1, 0, 0, 1, 16, 5)"><g clip-path="url(#3c776376e7)"><g fill="#ff8fb1" fill-opacity="1"><g transform="translate(1.174834, 1678.695682)"><g><path d="M 52.75 -562.703125 C 52.75 -673.535156 76.726562 -772.378906 124.6875 -859.234375 C 172.644531 -946.085938 239.519531 -1013.757812 325.3125 -1062.25 C 411.101562 -1110.738281 508.347656 -1134.984375 617.046875 -1134.984375 C 750.265625 -1134.984375 864.296875 -1099.816406 959.140625 -1029.484375 C 1053.992188 -959.148438 1117.40625 -863.234375 1149.375 -741.734375 L 848.84375 -741.734375 C 826.46875 -788.628906 794.765625 -824.332031 753.734375 -848.84375 C 712.703125 -873.351562 666.078125 -885.609375 613.859375 -885.609375 C 529.660156 -885.609375 461.453125 -856.300781 409.234375 -797.6875 C 357.015625 -739.070312 330.90625 -660.742188 330.90625 -562.703125 C 330.90625 -464.648438 357.015625 -386.316406 409.234375 -327.703125 C 461.453125 -269.085938 529.660156 -239.78125 613.859375 -239.78125 C 666.078125 -239.78125 712.703125 -252.035156 753.734375 -276.546875 C 794.765625 -301.066406 826.46875 -336.769531 848.84375 -383.65625 L 1149.375 -383.65625 C 1117.40625 -262.164062 1053.992188 -166.515625 959.140625 -96.703125 C 864.296875 -26.898438 750.265625 8 617.046875 8 C 508.347656 8 411.101562 -16.242188 325.3125 -64.734375 C 239.519531 -113.234375 172.644531 -180.644531 124.6875 -266.96875 C 76.726562 -353.289062 52.75 -451.867188 52.75 -562.703125 Z M 52.75 -562.703125 "/></g></g></g><g fill="#ff8fb1" fill-opacity="1"><g transform="translate(1219.288887, 1678.695682)"><g><path d="M 954.34375 -760.921875 C 954.34375 -695.910156 939.421875 -636.492188 909.578125 -582.671875 C 879.742188 -528.859375 833.921875 -485.429688 772.109375 -452.390625 C 710.296875 -419.359375 633.566406 -402.84375 541.921875 -402.84375 L 372.46875 -402.84375 L 372.46875 0 L 99.109375 0 L 99.109375 -1122.203125 L 541.921875 -1122.203125 C 631.441406 -1122.203125 707.109375 -1106.75 768.921875 -1075.84375 C 830.734375 -1044.9375 877.085938 -1002.304688 907.984375 -947.953125 C 938.890625 -893.597656 954.34375 -831.253906 954.34375 -760.921875 Z M 521.140625 -620.25 C 573.359375 -620.25 612.253906 -632.503906 637.828125 -657.015625 C 663.410156 -681.523438 676.203125 -716.160156 676.203125 -760.921875 C 676.203125 -805.679688 663.410156 -840.316406 637.828125 -864.828125 C 612.253906 -889.335938 573.359375 -901.59375 521.140625 -901.59375 L 372.46875 -901.59375 L 372.46875 -620.25 Z M 521.140625 -620.25 "/></g></g></g></g></g><path fill="#ff8fb1" d="M 490.96875 1149.578125 C 490.886719 1148.757812 490.28125 1146.132812 489.152344 1141.699219 C 488.699219 1139.910156 488.140625 1137.226562 487.480469 1133.644531 C 485.085938 1120.714844 483.285156 1110.597656 482.078125 1103.289062 C 481.808594 1101.636719 481.839844 1099.542969 481.503906 1097.8125 C 480 1090.046875 479.777344 1081.320312 480.84375 1071.625 C 481.21875 1068.253906 480.320312 1065.257812 477.910156 1061.933594 C 476.363281 1059.800781 475.261719 1057.675781 474.613281 1055.5625 C 472.691406 1049.324219 471.589844 1043.242188 471.304688 1037.316406 C 471.25 1036.164062 470.875 1035.085938 470.175781 1034.082031 C 464.96875 1026.59375 472.410156 1021.761719 473.269531 1014.550781 C 473.3125 1014.15625 473.253906 1013.785156 473.089844 1013.429688 C 471.316406 1009.613281 470.855469 1005.257812 471.707031 1000.355469 C 471.964844 998.894531 472.476562 997.59375 473.246094 996.457031 C 475.175781 993.617188 476.734375 990.882812 477.132812 987.050781 C 477.679688 981.890625 478.308594 976.746094 479.015625 971.621094 C 479.984375 964.703125 484.050781 963.386719 489.09375 960.152344 C 493.410156 957.386719 492.378906 951.335938 497.417969 949.246094 C 498.941406 948.617188 502.109375 947.960938 504.222656 946.308594 C 506.171875 944.785156 507.839844 942.3125 510.820312 938.71875 C 513 936.085938 516.132812 935.445312 519.800781 936.117188 C 521.1875 936.367188 524.058594 936.78125 528.414062 937.359375 C 530.023438 937.570312 531.875 936.996094 533.972656 935.640625 C 537.117188 933.605469 540.503906 928.742188 546.015625 928.734375 C 549.042969 928.734375 552.398438 929.214844 555.886719 930.296875 C 558.976562 931.257812 560.863281 931.765625 561.542969 931.820312 C 563.082031 931.949219 565.476562 931.71875 568.722656 931.125 C 569.28125 931.019531 569.804688 930.832031 570.292969 930.558594 C 573.855469 928.570312 578.644531 926.996094 582.460938 926.269531 C 587.640625 925.269531 592.136719 927.449219 598.167969 929.585938 C 600.585938 930.441406 602.992188 931.011719 605.382812 931.296875 C 610.480469 931.902344 614.492188 932.210938 617.421875 932.226562 C 623.277344 932.253906 626.222656 932.613281 631.40625 932.726562 C 637.839844 932.875 643.59375 934.28125 650.414062 935.839844 C 651.734375 936.140625 652.964844 936.652344 654.097656 937.378906 C 658.527344 940.210938 662.867188 943.199219 668.6875 943.65625 C 674.148438 944.082031 681.136719 944.507812 687.636719 946.300781 C 693.242188 947.84375 698.503906 949.625 703.421875 951.636719 C 707.445312 953.285156 710.726562 955.097656 713.269531 957.074219 C 718.34375 961.011719 724.527344 967.003906 725.507812 973.273438 C 726.007812 976.46875 726.277344 980.699219 725.46875 984.113281 C 725.417969 984.316406 725.429688 984.519531 725.503906 984.71875 C 725.574219 984.914062 725.691406 985.082031 725.859375 985.210938 C 728.574219 987.289062 732.21875 990.3125 736.796875 994.273438 C 741.101562 998.003906 744.324219 1001.417969 746.464844 1004.503906 C 750.929688 1010.960938 754.128906 1017.996094 756.058594 1025.601562 C 759.179688 1037.902344 761.976562 1050.601562 764.441406 1063.703125 C 766.792969 1076.183594 767.976562 1088.808594 767.988281 1101.578125 C 767.988281 1101.757812 768.066406 1101.890625 768.21875 1101.980469 C 768.375 1102.066406 768.523438 1102.066406 768.675781 1101.972656 C 771.359375 1100.328125 775.402344 1097.445312 779.0625 1098.773438 C 787.117188 1101.6875 790.722656 1108.792969 792.765625 1116.59375 C 794.480469 1123.132812 795.601562 1130.449219 796.125 1138.542969 C 796.835938 1149.535156 794.855469 1160.867188 791.351562 1171.113281 C 790.558594 1173.429688 788.917969 1176.433594 786.421875 1180.128906 C 786.25 1180.390625 786.027344 1180.609375 785.761719 1180.78125 C 782.027344 1183.246094 777.238281 1185.253906 772.523438 1185.261719 C 771.476562 1185.261719 770.058594 1185.296875 768.273438 1185.367188 C 762.820312 1185.597656 759.800781 1192.105469 758.792969 1196.925781 C 757.75 1201.914062 756.910156 1206.453125 756.273438 1210.539062 C 756.03125 1212.066406 755.226562 1213.609375 753.859375 1215.164062 C 753.386719 1215.695312 753.027344 1216.289062 752.769531 1216.949219 C 747.636719 1230.164062 742.226562 1243.046875 734.277344 1254.058594 C 724.769531 1267.222656 714.832031 1279.046875 704.46875 1289.53125 C 699.65625 1294.398438 693.949219 1299.269531 687.351562 1304.144531 C 674.03125 1313.984375 663.929688 1320.628906 649.234375 1324.125 C 647.082031 1324.640625 644.996094 1325 642.980469 1325.207031 C 642.335938 1325.277344 641.695312 1325.265625 641.050781 1325.164062 C 633.472656 1324.050781 626.804688 1322.472656 621.042969 1320.425781 C 609.851562 1316.464844 597.957031 1310.699219 587.511719 1303.316406 C 585.566406 1301.941406 583.09375 1300.5625 580.09375 1299.183594 C 578.476562 1298.441406 574.335938 1295.785156 567.667969 1291.214844 C 564.621094 1289.136719 560.488281 1286.183594 555.265625 1282.359375 C 550.234375 1278.675781 546.351562 1275.390625 543.625 1272.503906 C 540.164062 1268.847656 536.953125 1264.65625 533.996094 1259.9375 C 531.824219 1256.464844 528.785156 1251.652344 524.875 1245.496094 C 524.8125 1245.394531 524.726562 1245.3125 524.621094 1245.25 C 524.519531 1245.1875 524.40625 1245.152344 524.285156 1245.144531 C 524.164062 1245.136719 524.046875 1245.152344 523.9375 1245.199219 C 523.824219 1245.246094 523.730469 1245.316406 523.648438 1245.40625 C 520.953125 1248.527344 517.558594 1250.53125 513.464844 1251.414062 C 511.582031 1251.820312 510.15625 1251.929688 509.191406 1251.75 C 504.019531 1250.757812 500.121094 1249.140625 497.257812 1244.421875 C 495.160156 1240.972656 493.742188 1236.953125 493 1232.363281 C 492.367188 1228.453125 492.984375 1223.34375 491.542969 1218.90625 C 491.054688 1217.425781 489.832031 1214.558594 487.875 1210.292969 C 485.96875 1206.148438 484.367188 1201.28125 483.0625 1195.699219 C 480.972656 1186.726562 479.25 1177.75 477.894531 1168.765625 C 477.703125 1167.492188 477.636719 1164.964844 477.691406 1161.183594 C 477.785156 1154.636719 480.992188 1151.070312 487.316406 1150.484375 C 487.742188 1150.445312 488.816406 1150.328125 490.535156 1150.125 C 490.671875 1150.109375 490.78125 1150.046875 490.863281 1149.9375 C 490.949219 1149.832031 490.984375 1149.710938 490.96875 1149.578125 Z M 490.96875 1149.578125 " fill-opacity="1" fill-rule="nonzero"/></svg>
